<mxfile host="app.diagrams.net" modified="2023-11-26T23:43:00.118Z" agent="Mozilla/5.0 (Windows NT 10.0; Win64; x64) AppleWebKit/537.36 (KHTML, like Gecko) Chrome/119.0.0.0 Safari/537.36" etag="TcK52d9BsevayHN8vktX" version="22.1.4" type="google">
  <diagram id="C5RBs43oDa-KdzZeNtuy" name="Page-1">
    <mxGraphModel grid="1" page="1" gridSize="10" guides="1" tooltips="1" connect="1" arrows="1" fold="1" pageScale="1" pageWidth="827" pageHeight="1169" math="0" shadow="0">
      <root>
        <mxCell id="WIyWlLk6GJQsqaUBKTNV-0" />
        <mxCell id="WIyWlLk6GJQsqaUBKTNV-1" parent="WIyWlLk6GJQsqaUBKTNV-0" />
        <mxCell id="WIyWlLk6GJQsqaUBKTNV-3" value="&lt;font style=&quot;font-size: 14px;&quot;&gt;Usuário é registrado&lt;/font&gt;" style="rounded=1;whiteSpace=wrap;html=1;fontSize=12;glass=0;strokeWidth=1;shadow=0;shape=note;backgroundOutline=1;darkOpacity=0.05;" vertex="1" parent="WIyWlLk6GJQsqaUBKTNV-1">
          <mxGeometry x="165" y="40" width="140" height="60" as="geometry" />
        </mxCell>
        <mxCell id="57Xxi3XH-DT83G9KA-tm-1" style="edgeStyle=orthogonalEdgeStyle;rounded=0;orthogonalLoop=1;jettySize=auto;html=1;exitX=0.5;exitY=1;exitDx=0;exitDy=0;" edge="1" parent="WIyWlLk6GJQsqaUBKTNV-1" source="WIyWlLk6GJQsqaUBKTNV-6" target="WIyWlLk6GJQsqaUBKTNV-10">
          <mxGeometry relative="1" as="geometry" />
        </mxCell>
        <mxCell id="WIyWlLk6GJQsqaUBKTNV-6" value="&lt;font style=&quot;font-size: 14px;&quot;&gt;Realiza o Login&lt;/font&gt;" style="whiteSpace=wrap;html=1;shadow=0;fontFamily=Helvetica;fontSize=12;align=center;strokeWidth=1;spacing=6;spacingTop=-4;rounded=1;" vertex="1" parent="WIyWlLk6GJQsqaUBKTNV-1">
          <mxGeometry x="185" y="210" width="100" height="80" as="geometry" />
        </mxCell>
        <mxCell id="WIyWlLk6GJQsqaUBKTNV-8" value="&lt;font style=&quot;font-size: 14px;&quot;&gt;Sim&lt;/font&gt;" style="rounded=0;html=1;jettySize=auto;orthogonalLoop=1;fontSize=11;endArrow=block;endFill=0;endSize=8;strokeWidth=1;shadow=0;labelBackgroundColor=none;edgeStyle=orthogonalEdgeStyle;" edge="1" parent="WIyWlLk6GJQsqaUBKTNV-1" source="WIyWlLk6GJQsqaUBKTNV-10" target="WIyWlLk6GJQsqaUBKTNV-11">
          <mxGeometry x="-0.2" y="15" relative="1" as="geometry">
            <mxPoint as="offset" />
          </mxGeometry>
        </mxCell>
        <mxCell id="57Xxi3XH-DT83G9KA-tm-2" style="edgeStyle=orthogonalEdgeStyle;rounded=0;orthogonalLoop=1;jettySize=auto;html=1;exitX=1;exitY=0.5;exitDx=0;exitDy=0;entryX=0;entryY=0.5;entryDx=0;entryDy=0;" edge="1" parent="WIyWlLk6GJQsqaUBKTNV-1" source="WIyWlLk6GJQsqaUBKTNV-10" target="57Xxi3XH-DT83G9KA-tm-4">
          <mxGeometry relative="1" as="geometry">
            <mxPoint x="360" y="350" as="targetPoint" />
          </mxGeometry>
        </mxCell>
        <mxCell id="WIyWlLk6GJQsqaUBKTNV-10" value="&lt;font style=&quot;font-size: 14px;&quot;&gt;Login e senha correto?&lt;/font&gt;" style="whiteSpace=wrap;html=1;shadow=0;fontFamily=Helvetica;fontSize=12;align=center;strokeWidth=1;spacing=6;spacingTop=-4;rounded=1;shape=rhombus;perimeter=rhombusPerimeter;" vertex="1" parent="WIyWlLk6GJQsqaUBKTNV-1">
          <mxGeometry x="170" y="358" width="130" height="112" as="geometry" />
        </mxCell>
        <mxCell id="57Xxi3XH-DT83G9KA-tm-13" style="edgeStyle=orthogonalEdgeStyle;rounded=0;orthogonalLoop=1;jettySize=auto;html=1;exitX=0.5;exitY=1;exitDx=0;exitDy=0;entryX=0.5;entryY=0;entryDx=0;entryDy=0;" edge="1" parent="WIyWlLk6GJQsqaUBKTNV-1" source="WIyWlLk6GJQsqaUBKTNV-11" target="57Xxi3XH-DT83G9KA-tm-9">
          <mxGeometry relative="1" as="geometry" />
        </mxCell>
        <mxCell id="WIyWlLk6GJQsqaUBKTNV-11" value="&lt;font style=&quot;font-size: 14px;&quot;&gt;Usuário loga no sistema&lt;/font&gt;" style="rounded=1;whiteSpace=wrap;html=1;fontSize=12;glass=0;strokeWidth=1;shadow=0;" vertex="1" parent="WIyWlLk6GJQsqaUBKTNV-1">
          <mxGeometry x="175" y="525" width="120" height="60" as="geometry" />
        </mxCell>
        <mxCell id="57Xxi3XH-DT83G9KA-tm-5" style="edgeStyle=orthogonalEdgeStyle;rounded=0;orthogonalLoop=1;jettySize=auto;html=1;exitX=0.5;exitY=0;exitDx=0;exitDy=0;entryX=1;entryY=0.5;entryDx=0;entryDy=0;" edge="1" parent="WIyWlLk6GJQsqaUBKTNV-1" source="57Xxi3XH-DT83G9KA-tm-4" target="WIyWlLk6GJQsqaUBKTNV-6">
          <mxGeometry relative="1" as="geometry" />
        </mxCell>
        <mxCell id="57Xxi3XH-DT83G9KA-tm-4" value="&lt;font style=&quot;font-size: 14px;&quot;&gt;Login ou senha incorreto&lt;/font&gt;" style="rounded=1;whiteSpace=wrap;html=1;" vertex="1" parent="WIyWlLk6GJQsqaUBKTNV-1">
          <mxGeometry x="400" y="384" width="120" height="60" as="geometry" />
        </mxCell>
        <mxCell id="57Xxi3XH-DT83G9KA-tm-7" value="&lt;font style=&quot;font-size: 15px;&quot;&gt;Diagrama de Atividade&lt;/font&gt;" style="text;html=1;align=center;verticalAlign=middle;resizable=0;points=[];autosize=1;strokeColor=none;fillColor=none;" vertex="1" parent="WIyWlLk6GJQsqaUBKTNV-1">
          <mxGeometry x="315" y="20" width="170" height="30" as="geometry" />
        </mxCell>
        <mxCell id="57Xxi3XH-DT83G9KA-tm-16" style="edgeStyle=orthogonalEdgeStyle;rounded=0;orthogonalLoop=1;jettySize=auto;html=1;exitX=0.5;exitY=1;exitDx=0;exitDy=0;" edge="1" parent="WIyWlLk6GJQsqaUBKTNV-1" source="57Xxi3XH-DT83G9KA-tm-9">
          <mxGeometry relative="1" as="geometry">
            <mxPoint x="235" y="820" as="targetPoint" />
          </mxGeometry>
        </mxCell>
        <mxCell id="57Xxi3XH-DT83G9KA-tm-18" style="edgeStyle=orthogonalEdgeStyle;rounded=0;orthogonalLoop=1;jettySize=auto;html=1;exitX=1;exitY=0.5;exitDx=0;exitDy=0;" edge="1" parent="WIyWlLk6GJQsqaUBKTNV-1" source="57Xxi3XH-DT83G9KA-tm-9">
          <mxGeometry relative="1" as="geometry">
            <mxPoint x="440" y="820" as="targetPoint" />
          </mxGeometry>
        </mxCell>
        <mxCell id="57Xxi3XH-DT83G9KA-tm-9" value="&lt;font style=&quot;font-size: 14px;&quot;&gt;Usuário tem acesso a todas as ferramentas de um usuáro comum&lt;/font&gt;" style="rounded=1;whiteSpace=wrap;html=1;" vertex="1" parent="WIyWlLk6GJQsqaUBKTNV-1">
          <mxGeometry x="149.38" y="640" width="171.25" height="90" as="geometry" />
        </mxCell>
        <mxCell id="57Xxi3XH-DT83G9KA-tm-12" style="edgeStyle=orthogonalEdgeStyle;rounded=0;orthogonalLoop=1;jettySize=auto;html=1;exitX=0.5;exitY=1;exitDx=0;exitDy=0;exitPerimeter=0;entryX=0.5;entryY=0;entryDx=0;entryDy=0;" edge="1" parent="WIyWlLk6GJQsqaUBKTNV-1" source="57Xxi3XH-DT83G9KA-tm-10" target="WIyWlLk6GJQsqaUBKTNV-6">
          <mxGeometry relative="1" as="geometry" />
        </mxCell>
        <mxCell id="57Xxi3XH-DT83G9KA-tm-10" value="" style="shape=doubleEllipse;html=1;verticalLabelPosition=bottom;labelBackgroundColor=#ffffff;verticalAlign=top;align=center;outlineConnect=0;outline=standard;symbol=general;perimeter=ellipsePerimeter;dashed=0;whiteSpace=wrap;aspect=fixed;" vertex="1" parent="WIyWlLk6GJQsqaUBKTNV-1">
          <mxGeometry x="210" y="130" width="50" height="50" as="geometry" />
        </mxCell>
        <mxCell id="57Xxi3XH-DT83G9KA-tm-11" style="edgeStyle=orthogonalEdgeStyle;rounded=0;orthogonalLoop=1;jettySize=auto;html=1;exitX=0.5;exitY=1;exitDx=0;exitDy=0;exitPerimeter=0;entryX=0.5;entryY=0;entryDx=0;entryDy=0;entryPerimeter=0;" edge="1" parent="WIyWlLk6GJQsqaUBKTNV-1" source="WIyWlLk6GJQsqaUBKTNV-3" target="57Xxi3XH-DT83G9KA-tm-10">
          <mxGeometry relative="1" as="geometry" />
        </mxCell>
        <mxCell id="57Xxi3XH-DT83G9KA-tm-14" value="Não" style="text;html=1;align=center;verticalAlign=middle;resizable=0;points=[];autosize=1;strokeColor=none;fillColor=none;fontSize=15;" vertex="1" parent="WIyWlLk6GJQsqaUBKTNV-1">
          <mxGeometry x="315" y="388" width="50" height="30" as="geometry" />
        </mxCell>
        <mxCell id="57Xxi3XH-DT83G9KA-tm-20" style="edgeStyle=orthogonalEdgeStyle;rounded=0;orthogonalLoop=1;jettySize=auto;html=1;exitX=0.5;exitY=1;exitDx=0;exitDy=0;entryX=0;entryY=0;entryDx=0;entryDy=0;" edge="1" parent="WIyWlLk6GJQsqaUBKTNV-1" source="57Xxi3XH-DT83G9KA-tm-17" target="57Xxi3XH-DT83G9KA-tm-24">
          <mxGeometry relative="1" as="geometry">
            <mxPoint x="360" y="995" as="targetPoint" />
          </mxGeometry>
        </mxCell>
        <mxCell id="57Xxi3XH-DT83G9KA-tm-17" value="&lt;font style=&quot;font-size: 14px;&quot;&gt;Cadastro de Livro&lt;/font&gt;" style="rounded=1;whiteSpace=wrap;html=1;" vertex="1" parent="WIyWlLk6GJQsqaUBKTNV-1">
          <mxGeometry x="175" y="820" width="120" height="60" as="geometry" />
        </mxCell>
        <mxCell id="57Xxi3XH-DT83G9KA-tm-23" style="edgeStyle=orthogonalEdgeStyle;rounded=0;orthogonalLoop=1;jettySize=auto;html=1;exitX=0.5;exitY=1;exitDx=0;exitDy=0;entryX=1;entryY=0;entryDx=0;entryDy=0;" edge="1" parent="WIyWlLk6GJQsqaUBKTNV-1" source="57Xxi3XH-DT83G9KA-tm-19" target="57Xxi3XH-DT83G9KA-tm-24">
          <mxGeometry relative="1" as="geometry">
            <mxPoint x="375" y="1010" as="targetPoint" />
          </mxGeometry>
        </mxCell>
        <mxCell id="57Xxi3XH-DT83G9KA-tm-19" value="&lt;font style=&quot;font-size: 14px;&quot;&gt;Visualização Dos livros Cadastrados&lt;/font&gt;" style="rounded=1;whiteSpace=wrap;html=1;" vertex="1" parent="WIyWlLk6GJQsqaUBKTNV-1">
          <mxGeometry x="380" y="820" width="130" height="70" as="geometry" />
        </mxCell>
        <mxCell id="57Xxi3XH-DT83G9KA-tm-24" value="" style="ellipse;html=1;shape=endState;fillColor=#000000;strokeColor=#ff0000;" vertex="1" parent="WIyWlLk6GJQsqaUBKTNV-1">
          <mxGeometry x="350" y="1030" width="30" height="30" as="geometry" />
        </mxCell>
      </root>
    </mxGraphModel>
  </diagram>
</mxfile>
